<svg version="1.1" id="Layer_1" xmlns="http://www.w3.org/2000/svg" xmlns:xlink="http://www.w3.org/1999/xlink" x="0px" y="0px"
	 width="159.2px" height="38.6px" viewBox="0 0 159.2 38.6" style="enable-background:new 0 0 159.2 38.6;" xml:space="preserve">
<style type="text/css">
	.linkedin-0{fill:#221F1F;}
	.linkedin-1{fill:#007BB6;}
	.linkedin-2{fill:#FFFFFF;}
</style>
<g>
	<g>
		<polygon class="linked-in-0" points="0,5.7 6,5.7 6,27.4 17,27.4 17,32.9 0,32.9 		"/>
		<g>
			<path class="linked-in-0" d="M19.6,14.5h5.7v18.4h-5.7V14.5z M22.5,5.3c1.8,0,3.3,1.5,3.3,3.3c0,1.8-1.5,3.3-3.3,3.3
				c-1.8,0-3.3-1.5-3.3-3.3C19.2,6.8,20.7,5.3,22.5,5.3"/>
		</g>
		<polygon class="linked-in-0" points="49.3,5.7 55,5.7 55,22 61.5,14.5 68.6,14.5 61,23 68.4,32.9 61.2,32.9 55.1,23.8 55,23.8 55,32.9 
			49.3,32.9 		"/>
		<path class="linked-in-0" d="M28.5,14.5H34V17h0.1c0.8-1.5,2.6-3,5.4-3c5.8,0,6.9,3.8,6.9,8.8v10.1h-5.7v-9c0-2.1,0-4.9-3-4.9
			c-3,0-3.4,2.3-3.4,4.7v9.1h-5.7V14.5z"/>
		<path class="linked-in-0" d="M80.6,21.5c0-1.9-1.5-3.5-3.5-3.5c-2.5,0-3.9,1.7-4,3.5H80.6z M85.5,29.7c-1.8,2.3-4.9,3.7-7.8,3.7
			c-5.7,0-10.3-3.8-10.3-9.7c0-5.9,4.6-9.7,10.3-9.7c5.3,0,8.7,3.8,8.7,9.7v1.8H73.1c0.5,2.2,2.1,3.6,4.3,3.6c1.9,0,3.1-1,4.1-2.3
			L85.5,29.7z"/>
		<path class="linked-in-0" d="M98.3,18.9c-2.9,0-4.6,1.9-4.6,4.7c0,2.8,1.7,4.7,4.6,4.7c2.9,0,4.6-1.9,4.6-4.7
			C102.9,20.8,101.1,18.9,98.3,18.9 M108.1,32.9h-5.3v-2.4h-0.1c-0.9,1.3-3.1,2.9-5.7,2.9c-5.5,0-9.1-4-9.1-9.6
			c0-5.2,3.2-9.9,8.5-9.9c2.4,0,4.6,0.6,5.9,2.4h0.1V5.7h5.7V32.9z"/>
	</g>
	<path class="linkedin-1" d="M149.6,0h-32.9c-1.6,0-2.8,1.2-2.8,2.8v33.1c0,1.5,1.3,2.8,2.8,2.8h32.9c1.6,0,2.9-1.2,2.9-2.8V2.8
		C152.5,1.2,151.2,0,149.6,0z"/>
	<path class="linkedin-2" d="M119.6,14.5h5.7v18.4h-5.7V14.5z M122.5,5.3c1.8,0,3.3,1.5,3.3,3.3c0,1.8-1.5,3.3-3.3,3.3
		c-1.8,0-3.3-1.5-3.3-3.3C119.1,6.8,120.6,5.3,122.5,5.3"/>
	<path class="linkedin-2" d="M128.9,14.5h5.5V17h0.1c0.8-1.4,2.6-3,5.4-3c5.8,0,6.9,3.8,6.9,8.8v10.1h-5.7v-9c0-2.1,0-4.9-3-4.9
		c-3,0-3.4,2.3-3.4,4.7v9.1h-5.7V14.5z"/>
	<polygon class="linked-in-0" points="154.2,30.6 154.9,30.6 154.9,32.9 155.3,32.9 155.3,30.6 156,30.6 156,30.2 154.2,30.2 	"/>
	<polygon class="linked-in-0" points="158.7,30.2 157.9,32.2 157.1,30.2 156.5,30.2 156.5,32.9 156.9,32.9 156.9,30.8 157.7,32.9 158,32.9 
		158.8,30.8 158.8,32.9 159.2,32.9 159.2,30.2 	"/>
</g>
</svg>
